<?xml version="1.0" standalone="no"?>
<!DOCTYPE svg PUBLIC "-//W3C//DTD SVG 20010904//EN"
 "http://www.w3.org/TR/2001/REC-SVG-20010904/DTD/svg10.dtd">
<svg version="1.0" xmlns="http://www.w3.org/2000/svg"
 width="130.000000pt" height="128.000000pt" viewBox="0 0 130.000000 128.000000"
 preserveAspectRatio="xMidYMid meet">

<g transform="translate(0.000000,128.000000) scale(0.100000,-0.100000)"
fill="#781EFF" stroke="none">
<path d="M503 1260 c-286 -51 -486 -289 -485 -576 0 -158 59 -301 167 -409
110 -110 257 -168 421 -167 75 0 107 5 184 32 51 17 95 28 99 23 52 -71 170
-77 237 -12 62 61 68 143 15 217 l-29 40 28 82 c52 151 49 282 -11 425 -65
156 -219 290 -385 334 -59 15 -183 21 -241 11z m260 -74 c221 -78 357 -269
357 -500 0 -89 -27 -217 -48 -230 -4 -2 -20 7 -36 21 l-29 24 18 75 c64 272
-119 528 -395 551 -300 25 -541 -260 -465 -552 41 -156 164 -279 320 -320 76
-19 140 -19 226 2 l69 16 26 -28 c14 -15 22 -31 17 -35 -45 -39 -241 -63 -343
-41 -95 20 -179 68 -255 145 -108 109 -155 222 -155 371 0 151 47 262 155 370
114 114 209 153 375 154 75 0 109 -4 163 -23z m2 -151 c163 -78 254 -264 212
-435 l-13 -55 -39 2 c-21 2 -40 5 -43 7 -2 3 1 19 7 37 16 47 13 157 -7 206
-25 62 -81 124 -143 158 -49 27 -63 30 -144 30 -78 0 -97 -4 -141 -27 -57 -30
-102 -77 -136 -141 -19 -35 -23 -58 -23 -132 0 -78 4 -97 27 -141 49 -93 131
-147 250 -164 74 -11 139 -36 146 -57 2 -7 -20 -16 -55 -24 -159 -33 -342 59
-416 212 -165 336 181 686 518 524z m-70 -119 c129 -60 185 -196 136 -326 -18
-46 -18 -50 -2 -50 41 0 122 -55 204 -139 85 -86 87 -90 87 -136 0 -40 -5 -51
-31 -76 -25 -23 -40 -29 -77 -29 -44 0 -48 3 -156 109 -61 60 -129 119 -152
130 -22 12 -72 25 -110 30 -115 14 -191 67 -233 161 -91 200 134 420 334 326z"/>
<path d="M758 460 c24 -11 88 -64 147 -121 70 -68 109 -99 120 -96 28 11 15
33 -69 115 -88 86 -148 122 -206 122 l-35 0 43 -20z"/>
<path d="M1176 930 c87 -178 101 -343 43 -509 -27 -79 -18 -91 11 -15 42 114
51 234 26 350 -13 64 -61 174 -90 209 -9 11 -5 -5 10 -35z"/>
<path d="M315 115 c41 -32 142 -76 210 -90 125 -26 269 -13 367 34 50 25 18
22 -52 -4 -61 -23 -166 -33 -248 -24 -71 8 -135 27 -237 73 -33 14 -51 19 -40
11z"/>
</g>
</svg>
