<?xml version="1.0" standalone="no"?>
<!DOCTYPE svg PUBLIC "-//W3C//DTD SVG 20010904//EN"
 "http://www.w3.org/TR/2001/REC-SVG-20010904/DTD/svg10.dtd">
<svg version="1.0" xmlns="http://www.w3.org/2000/svg"
 width="282.000000pt" height="227.000000pt" viewBox="0 0 282.000000 227.000000"
 preserveAspectRatio="xMidYMid meet">

<g transform="translate(0.000000,227.000000) scale(0.100000,-0.100000)"
fill="#781EFF" stroke="none">
<path d="M1273 2250 c-286 -51 -486 -289 -485 -576 0 -158 59 -301 167 -409
110 -110 257 -168 421 -167 75 0 107 5 184 32 51 17 95 28 99 23 52 -71 170
-77 237 -12 62 61 68 143 15 217 l-29 40 28 82 c52 151 49 282 -11 425 -65
156 -219 290 -385 334 -59 15 -183 21 -241 11z m260 -74 c221 -78 357 -269
357 -500 0 -89 -27 -217 -48 -230 -4 -2 -20 7 -36 21 l-29 24 18 75 c64 272
-119 528 -395 551 -300 25 -541 -260 -465 -552 41 -156 164 -279 320 -320 76
-19 140 -19 226 2 l69 16 26 -28 c14 -15 22 -31 17 -35 -45 -39 -241 -63 -343
-41 -95 20 -179 68 -255 145 -108 109 -155 222 -155 371 0 151 47 262 155 370
114 114 209 153 375 154 75 0 109 -4 163 -23z m2 -151 c163 -78 254 -264 212
-435 l-13 -55 -39 2 c-21 2 -40 5 -43 7 -2 3 1 19 7 37 16 47 13 157 -7 206
-25 62 -81 124 -143 158 -49 27 -63 30 -144 30 -78 0 -97 -4 -141 -27 -57 -30
-102 -77 -136 -141 -19 -35 -23 -58 -23 -132 0 -78 4 -97 27 -141 49 -93 131
-147 250 -164 74 -11 139 -36 146 -57 2 -7 -20 -16 -55 -24 -159 -33 -342 59
-416 212 -165 336 181 686 518 524z m-70 -119 c129 -60 185 -196 136 -326 -18
-46 -18 -50 -2 -50 41 0 122 -55 204 -139 85 -86 87 -90 87 -136 0 -40 -5 -51
-31 -76 -25 -23 -40 -29 -77 -29 -44 0 -48 3 -156 109 -61 60 -129 119 -152
130 -22 12 -72 25 -110 30 -115 14 -191 67 -233 161 -91 200 134 420 334 326z"/>
<path d="M1528 1450 c24 -11 88 -64 147 -121 70 -68 109 -99 120 -96 28 11 15
33 -69 115 -88 86 -148 122 -206 122 l-35 0 43 -20z"/>
<path d="M1946 1920 c87 -178 101 -343 43 -509 -27 -79 -18 -91 11 -15 42 114
51 234 26 350 -13 64 -61 174 -90 209 -9 11 -5 -5 10 -35z"/>
<path d="M1085 1105 c41 -32 142 -76 210 -90 125 -26 269 -13 367 34 50 25 18
22 -52 -4 -61 -23 -166 -33 -248 -24 -71 8 -135 27 -237 73 -33 14 -51 19 -40
11z"/>
<path d="M818 713 c-64 -4 -68 -5 -68 -28 0 -13 -3 -30 -6 -39 -5 -14 4 -16
65 -16 68 0 81 -5 62 -25 -5 -6 -38 -67 -75 -136 -62 -119 -76 -162 -58 -172
4 -3 56 -2 115 2 l109 6 -22 28 c-14 18 -31 27 -50 27 -16 0 -35 3 -44 6 -14
5 -14 9 1 37 8 18 30 52 48 77 45 63 95 157 87 165 -4 3 0 10 8 15 11 7 9 10
-12 10 -38 0 -43 16 -7 24 17 3 28 10 24 16 -6 10 -33 10 -177 3z"/>
<path d="M1125 710 l-70 -5 -3 -37 -3 -38 65 0 c65 0 81 -10 57 -35 -5 -6 -39
-67 -75 -138 -88 -167 -88 -168 52 -160 59 3 109 7 111 9 13 11 -46 53 -77 56
-19 2 -37 8 -39 14 -2 6 23 51 55 100 32 49 67 112 79 139 l22 50 -25 3 c-30
4 -32 19 -2 24 12 2 23 9 26 16 4 14 -7 14 -173 2z"/>
<path d="M2175 706 c-41 -12 -47 -20 -94 -126 -16 -36 -51 -235 -51 -287 0 -8
13 -13 30 -13 34 0 50 23 50 72 0 40 15 58 47 58 19 0 23 -5 23 -29 0 -16 3
-43 6 -60 6 -27 11 -32 33 -29 30 3 28 -24 15 261 -4 92 -10 167 -13 166 -3 0
-24 -6 -46 -13z m-11 -188 c6 -39 -2 -57 -26 -58 -9 0 -11 62 -2 84 11 27 21
18 28 -26z"/>
<path d="M94 691 c-49 -30 -77 -98 -76 -189 0 -90 12 -125 54 -169 30 -31 31
-33 14 -52 -22 -25 -13 -45 14 -31 32 17 85 11 123 -14 31 -21 37 -23 48 -10
10 12 7 20 -16 44 l-29 30 21 22 c46 51 58 88 58 188 0 81 -3 100 -23 131 -12
21 -35 45 -50 55 -24 16 -26 16 -13 1 20 -25 5 -34 -19 -12 -18 17 -20 17 -14
2 9 -23 -9 -21 -31 3 -22 24 -23 24 -61 1z m106 -61 c37 -20 51 -134 26 -215
-15 -50 -54 -69 -85 -41 -54 49 -45 226 12 254 28 14 25 14 47 2z"/>
<path d="M346 688 c-3 -13 -6 -47 -6 -77 0 -43 5 -60 22 -78 22 -24 13 -33
-11 -10 -11 10 -13 -1 -7 -66 10 -131 42 -177 124 -177 55 0 76 11 92 50 13
33 2 60 -26 60 -8 0 -14 7 -14 15 0 25 -15 17 -27 -15 -6 -17 -19 -30 -28 -30
-19 0 -45 56 -49 108 -2 23 -16 51 -35 74 -35 42 -34 45 9 23 30 -15 30 -15
30 12 0 16 3 52 6 81 l7 52 -40 0 c-34 0 -42 -4 -47 -22z"/>
<path d="M1797 598 c-4 -62 -7 -162 -7 -221 l0 -109 88 7 c118 9 122 11 122
47 l0 31 -60 -6 -60 -7 0 28 c0 15 -7 40 -15 56 -11 20 -12 32 -5 41 8 9 7 15
-2 19 -10 5 -10 7 0 12 8 4 12 36 12 110 l0 104 -33 0 -34 0 -6 -112z"/>
<path d="M2440 683 c0 -20 12 -37 40 -61 l40 -33 0 60 0 61 -40 0 c-37 0 -40
-2 -40 -27z"/>
<path d="M2567 703 c-17 -16 -4 -54 31 -92 20 -22 41 -41 45 -41 4 0 7 14 7
30 0 36 9 38 37 8 44 -49 56 -87 50 -162 -5 -60 -10 -75 -32 -93 -14 -13 -35
-23 -46 -23 -20 0 -21 5 -17 99 3 89 2 100 -14 104 -10 3 -18 14 -18 24 0 11
-11 30 -25 43 l-25 23 0 -28 c0 -20 11 -41 36 -66 33 -34 34 -37 15 -42 -12
-3 -19 -2 -16 3 2 4 -5 16 -16 25 -20 19 -20 18 -17 -111 l3 -129 83 0 c82 0
84 1 112 32 16 18 34 52 41 75 26 97 -11 251 -73 303 -25 21 -40 25 -92 25
-35 0 -66 -3 -69 -7z"/>
<path d="M511 593 l0 -108 35 -28 34 -29 0 120 c0 66 -3 127 -6 136 -4 10 -18
16 -35 16 l-29 0 1 -107z"/>
<path d="M615 656 c-4 -25 -4 -49 -1 -55 4 -6 7 -82 7 -169 l0 -158 30 4 c28
4 30 8 30 46 0 22 3 94 6 160 l5 119 -29 -7 -28 -6 28 23 c19 16 27 32 27 55
0 30 -2 32 -34 32 -33 0 -35 -2 -41 -44z"/>
<path d="M1480 636 c0 -49 -4 -65 -16 -70 -38 -15 -44 -8 -44 54 l0 60 -40 0
c-35 0 -40 -3 -40 -24 0 -13 -3 -38 -6 -55 -5 -24 -3 -31 10 -31 18 0 21 -11
6 -26 -18 -18 11 -33 70 -36 l55 -3 3 -40 c5 -63 -6 -105 -28 -105 -15 0 -21
9 -26 40 -4 22 -12 40 -18 40 -32 -1 -55 -14 -60 -36 -9 -36 11 -101 37 -119
25 -18 79 -20 109 -4 48 26 78 186 63 344 l-7 75 -34 0 -34 0 0 -64z m-90 -86
c-8 -5 -17 -7 -19 -4 -3 3 1 9 9 14 8 5 17 7 19 4 3 -3 -1 -9 -9 -14z"/>
<path d="M2298 693 c-15 -4 -17 -21 -12 -196 6 -238 7 -239 42 -235 l27 3 5
110 5 110 18 -40 c10 -22 28 -62 39 -90 11 -27 24 -56 30 -62 15 -18 55 -16
62 3 10 27 7 274 -4 274 -5 0 -10 -7 -10 -15 0 -18 -18 -16 -40 4 -13 13 -16
11 -20 -15 l-6 -29 -16 30 c-8 17 -23 54 -32 83 -10 29 -26 57 -36 62 -19 10
-24 11 -52 3z"/>
<path d="M1260 356 c0 -2 8 -10 18 -17 15 -13 16 -12 3 4 -13 16 -21 21 -21
13z"/>
<path d="M554 145 c-29 -29 -26 -58 9 -89 12 -10 21 -23 20 -27 -2 -5 11 -9
27 -9 17 0 30 5 30 10 0 6 -5 10 -12 10 -7 0 -6 6 4 18 28 32 29 62 3 88 -31
31 -50 30 -81 -1z m76 -15 c21 -40 -9 -78 -51 -65 -24 8 -35 50 -19 70 18 22
57 19 70 -5z"/>
<path d="M830 129 c0 -55 15 -79 48 -79 40 0 52 17 51 74 l-2 51 -6 -47 c-8
-56 -21 -73 -50 -63 -18 5 -21 14 -21 56 0 27 -4 49 -10 49 -5 0 -10 -18 -10
-41z"/>
<path d="M1087 163 c-11 -10 -8 -113 3 -113 6 0 10 27 10 60 0 61 -1 65 -13
53z"/>
<path d="M1240 160 c0 -5 14 -10 30 -10 17 0 30 -3 30 -6 0 -3 -14 -25 -30
-50 l-31 -44 53 2 c43 1 46 2 16 5 -21 2 -38 6 -38 9 0 3 14 25 30 49 17 24
30 46 30 49 0 3 -20 6 -45 6 -25 0 -45 -4 -45 -10z"/>
<path d="M1957 164 c-11 -11 -8 -114 3 -114 6 0 10 4 10 8 0 4 15 12 33 17 24
8 33 16 35 35 1 14 -1 31 -6 37 -10 15 -64 27 -75 17z m63 -33 c7 -15 6 -24
-6 -36 -23 -22 -38 -14 -42 23 -3 27 0 32 17 32 11 0 25 -9 31 -19z"/>
<path d="M2200 110 c0 -33 4 -60 10 -60 6 0 10 4 10 8 0 4 15 12 33 17 62 19
38 95 -30 95 -21 0 -23 -4 -23 -60z m69 22 c12 -22 3 -39 -24 -44 -16 -2 -21
3 -23 30 -3 27 0 32 17 32 11 0 25 -8 30 -18z"/>
<path d="M1700 102 l-25 -47 57 0 56 0 -26 47 c-15 27 -29 48 -32 48 -3 0 -16
-22 -30 -48z m44 2 c9 -23 8 -24 -14 -24 -19 0 -27 20 -13 33 11 11 20 8 27
-9z"/>
</g>
</svg>
